<mxfile host="app.diagrams.net" agent="Mozilla/5.0 (Windows NT 10.0; Win64; x64) AppleWebKit/537.36 (KHTML, like Gecko) Chrome/131.0.0.0 Safari/537.36" version="24.9.1">
  <diagram name="Страница — 1" id="TGtUsXswCx8yC_RqDV6F">
    <mxGraphModel dx="1390" dy="746" grid="1" gridSize="10" guides="1" tooltips="1" connect="1" arrows="1" fold="1" page="1" pageScale="1" pageWidth="2339" pageHeight="3300" math="0" shadow="0">
      <root>
        <mxCell id="0" />
        <mxCell id="1" parent="0" />
        <mxCell id="MNSN4jUZ-0V3lGfAkd76-1" value="User" style="rounded=0;whiteSpace=wrap;html=1;" parent="1" vertex="1">
          <mxGeometry x="1010" y="120" width="120" height="60" as="geometry" />
        </mxCell>
        <mxCell id="MNSN4jUZ-0V3lGfAkd76-2" value="товары" style="rounded=0;whiteSpace=wrap;html=1;" parent="1" vertex="1">
          <mxGeometry x="850" y="240" width="120" height="60" as="geometry" />
        </mxCell>
        <mxCell id="MNSN4jUZ-0V3lGfAkd76-3" value="отзывы&amp;nbsp;" style="rounded=0;whiteSpace=wrap;html=1;" parent="1" vertex="1">
          <mxGeometry x="1010" y="330" width="120" height="60" as="geometry" />
        </mxCell>
        <mxCell id="MNSN4jUZ-0V3lGfAkd76-4" value="фото/видео" style="rounded=0;whiteSpace=wrap;html=1;" parent="1" vertex="1">
          <mxGeometry x="1130" y="430" width="120" height="60" as="geometry" />
        </mxCell>
        <mxCell id="MNSN4jUZ-0V3lGfAkd76-5" value="" style="endArrow=classic;html=1;rounded=0;exitX=0;exitY=0.5;exitDx=0;exitDy=0;entryX=0.675;entryY=0.033;entryDx=0;entryDy=0;entryPerimeter=0;" parent="1" source="MNSN4jUZ-0V3lGfAkd76-1" target="MNSN4jUZ-0V3lGfAkd76-2" edge="1">
          <mxGeometry width="50" height="50" relative="1" as="geometry">
            <mxPoint x="1070" y="340" as="sourcePoint" />
            <mxPoint x="1120" y="290" as="targetPoint" />
            <Array as="points">
              <mxPoint x="930" y="150" />
            </Array>
          </mxGeometry>
        </mxCell>
        <mxCell id="MNSN4jUZ-0V3lGfAkd76-6" value="покупает" style="edgeLabel;html=1;align=center;verticalAlign=middle;resizable=0;points=[];" parent="MNSN4jUZ-0V3lGfAkd76-5" vertex="1" connectable="0">
          <mxGeometry x="0.3607" y="1" relative="1" as="geometry">
            <mxPoint as="offset" />
          </mxGeometry>
        </mxCell>
        <mxCell id="MNSN4jUZ-0V3lGfAkd76-7" value="" style="endArrow=classic;html=1;rounded=0;exitX=0.667;exitY=0.983;exitDx=0;exitDy=0;exitPerimeter=0;entryX=0.675;entryY=-0.033;entryDx=0;entryDy=0;entryPerimeter=0;" parent="1" source="MNSN4jUZ-0V3lGfAkd76-1" target="MNSN4jUZ-0V3lGfAkd76-3" edge="1">
          <mxGeometry width="50" height="50" relative="1" as="geometry">
            <mxPoint x="1070" y="340" as="sourcePoint" />
            <mxPoint x="1120" y="290" as="targetPoint" />
          </mxGeometry>
        </mxCell>
        <mxCell id="MNSN4jUZ-0V3lGfAkd76-8" value="оставляет" style="edgeLabel;html=1;align=center;verticalAlign=middle;resizable=0;points=[];" parent="MNSN4jUZ-0V3lGfAkd76-7" vertex="1" connectable="0">
          <mxGeometry x="-0.1005" y="2" relative="1" as="geometry">
            <mxPoint as="offset" />
          </mxGeometry>
        </mxCell>
        <mxCell id="MNSN4jUZ-0V3lGfAkd76-9" value="" style="endArrow=classic;html=1;rounded=0;exitX=0.333;exitY=-0.008;exitDx=0;exitDy=0;exitPerimeter=0;entryX=1;entryY=0.5;entryDx=0;entryDy=0;" parent="1" source="MNSN4jUZ-0V3lGfAkd76-4" target="MNSN4jUZ-0V3lGfAkd76-3" edge="1">
          <mxGeometry width="50" height="50" relative="1" as="geometry">
            <mxPoint x="1070" y="340" as="sourcePoint" />
            <mxPoint x="1130" y="370" as="targetPoint" />
            <Array as="points">
              <mxPoint x="1170" y="360" />
            </Array>
          </mxGeometry>
        </mxCell>
        <mxCell id="MNSN4jUZ-0V3lGfAkd76-10" value="&amp;nbsp;прикреплено" style="edgeLabel;html=1;align=center;verticalAlign=middle;resizable=0;points=[];" parent="MNSN4jUZ-0V3lGfAkd76-9" vertex="1" connectable="0">
          <mxGeometry x="-0.3513" y="-1" relative="1" as="geometry">
            <mxPoint as="offset" />
          </mxGeometry>
        </mxCell>
        <mxCell id="MNSN4jUZ-0V3lGfAkd76-11" value="" style="endArrow=classic;html=1;rounded=0;exitX=1;exitY=0.5;exitDx=0;exitDy=0;entryX=0.342;entryY=0;entryDx=0;entryDy=0;entryPerimeter=0;" parent="1" source="MNSN4jUZ-0V3lGfAkd76-2" target="MNSN4jUZ-0V3lGfAkd76-3" edge="1">
          <mxGeometry width="50" height="50" relative="1" as="geometry">
            <mxPoint x="980" y="270" as="sourcePoint" />
            <mxPoint x="1120" y="290" as="targetPoint" />
            <Array as="points">
              <mxPoint x="1050" y="270" />
            </Array>
          </mxGeometry>
        </mxCell>
        <mxCell id="MNSN4jUZ-0V3lGfAkd76-12" value="содержит" style="edgeLabel;html=1;align=center;verticalAlign=middle;resizable=0;points=[];" parent="MNSN4jUZ-0V3lGfAkd76-11" vertex="1" connectable="0">
          <mxGeometry x="-0.4286" y="-1" relative="1" as="geometry">
            <mxPoint as="offset" />
          </mxGeometry>
        </mxCell>
        <mxCell id="MNSN4jUZ-0V3lGfAkd76-13" value="" style="endArrow=classic;html=1;rounded=0;exitX=1;exitY=0.5;exitDx=0;exitDy=0;entryX=0.65;entryY=0.008;entryDx=0;entryDy=0;entryPerimeter=0;" parent="1" source="MNSN4jUZ-0V3lGfAkd76-1" target="MNSN4jUZ-0V3lGfAkd76-4" edge="1">
          <mxGeometry width="50" height="50" relative="1" as="geometry">
            <mxPoint x="1080" y="420" as="sourcePoint" />
            <mxPoint x="1130" y="370" as="targetPoint" />
            <Array as="points">
              <mxPoint x="1210" y="150" />
            </Array>
          </mxGeometry>
        </mxCell>
        <mxCell id="MNSN4jUZ-0V3lGfAkd76-14" value="&amp;nbsp; загружает" style="edgeLabel;html=1;align=center;verticalAlign=middle;resizable=0;points=[];" parent="MNSN4jUZ-0V3lGfAkd76-13" vertex="1" connectable="0">
          <mxGeometry x="0.0626" y="-2" relative="1" as="geometry">
            <mxPoint as="offset" />
          </mxGeometry>
        </mxCell>
        <mxCell id="MNSN4jUZ-0V3lGfAkd76-15" value="покупки" style="rounded=0;whiteSpace=wrap;html=1;" parent="1" vertex="1">
          <mxGeometry x="850" y="410" width="120" height="65" as="geometry" />
        </mxCell>
        <mxCell id="MNSN4jUZ-0V3lGfAkd76-16" value="" style="endArrow=classic;html=1;rounded=0;jumpStyle=arc;" parent="1" edge="1">
          <mxGeometry width="50" height="50" relative="1" as="geometry">
            <mxPoint x="1010" y="127" as="sourcePoint" />
            <mxPoint x="850" y="430" as="targetPoint" />
            <Array as="points">
              <mxPoint x="800" y="127" />
              <mxPoint x="800" y="430" />
            </Array>
          </mxGeometry>
        </mxCell>
        <mxCell id="MNSN4jUZ-0V3lGfAkd76-21" value="имеет" style="edgeLabel;html=1;align=center;verticalAlign=middle;resizable=0;points=[];" parent="MNSN4jUZ-0V3lGfAkd76-16" vertex="1" connectable="0">
          <mxGeometry x="0.2783" y="2" relative="1" as="geometry">
            <mxPoint as="offset" />
          </mxGeometry>
        </mxCell>
        <mxCell id="MNSN4jUZ-0V3lGfAkd76-18" value="" style="endArrow=classic;html=1;rounded=0;exitX=0.5;exitY=0;exitDx=0;exitDy=0;entryX=0.5;entryY=1;entryDx=0;entryDy=0;" parent="1" source="MNSN4jUZ-0V3lGfAkd76-15" target="MNSN4jUZ-0V3lGfAkd76-2" edge="1">
          <mxGeometry relative="1" as="geometry">
            <mxPoint x="1370" y="380" as="sourcePoint" />
            <mxPoint x="1470" y="380" as="targetPoint" />
          </mxGeometry>
        </mxCell>
        <mxCell id="MNSN4jUZ-0V3lGfAkd76-23" value="содержат" style="edgeLabel;html=1;align=center;verticalAlign=middle;resizable=0;points=[];" parent="MNSN4jUZ-0V3lGfAkd76-18" vertex="1" connectable="0">
          <mxGeometry x="0.0364" y="-1" relative="1" as="geometry">
            <mxPoint as="offset" />
          </mxGeometry>
        </mxCell>
        <mxCell id="2xi72jJKv009g28mrc_R-14" value="" style="shape=table;startSize=0;container=1;collapsible=0;childLayout=tableLayout;fontSize=16;strokeWidth=2;" vertex="1" parent="1">
          <mxGeometry x="50" y="70" width="670" height="200" as="geometry" />
        </mxCell>
        <mxCell id="2xi72jJKv009g28mrc_R-15" value="" style="shape=tableRow;horizontal=0;startSize=0;swimlaneHead=0;swimlaneBody=0;strokeColor=inherit;top=0;left=0;bottom=0;right=0;collapsible=0;dropTarget=0;fillColor=none;points=[[0,0.5],[1,0.5]];portConstraint=eastwest;fontSize=16;strokeWidth=2;" vertex="1" parent="2xi72jJKv009g28mrc_R-14">
          <mxGeometry width="670" height="30" as="geometry" />
        </mxCell>
        <mxCell id="2xi72jJKv009g28mrc_R-16" value="Родительская сущность&amp;nbsp;" style="shape=partialRectangle;html=1;whiteSpace=wrap;connectable=0;strokeColor=inherit;overflow=hidden;fillColor=none;top=0;left=0;bottom=0;right=0;pointerEvents=1;fontSize=16;strokeWidth=2;" vertex="1" parent="2xi72jJKv009g28mrc_R-15">
          <mxGeometry width="210" height="30" as="geometry">
            <mxRectangle width="210" height="30" as="alternateBounds" />
          </mxGeometry>
        </mxCell>
        <mxCell id="2xi72jJKv009g28mrc_R-17" value="Атрибут" style="shape=partialRectangle;html=1;whiteSpace=wrap;connectable=0;strokeColor=inherit;overflow=hidden;fillColor=none;top=0;left=0;bottom=0;right=0;pointerEvents=1;fontSize=16;strokeWidth=2;" vertex="1" parent="2xi72jJKv009g28mrc_R-15">
          <mxGeometry x="210" width="237" height="30" as="geometry">
            <mxRectangle width="237" height="30" as="alternateBounds" />
          </mxGeometry>
        </mxCell>
        <mxCell id="2xi72jJKv009g28mrc_R-18" value="Описание" style="shape=partialRectangle;html=1;whiteSpace=wrap;connectable=0;strokeColor=inherit;overflow=hidden;fillColor=none;top=0;left=0;bottom=0;right=0;pointerEvents=1;fontSize=16;strokeWidth=2;" vertex="1" parent="2xi72jJKv009g28mrc_R-15">
          <mxGeometry x="447" width="223" height="30" as="geometry">
            <mxRectangle width="223" height="30" as="alternateBounds" />
          </mxGeometry>
        </mxCell>
        <mxCell id="2xi72jJKv009g28mrc_R-19" value="" style="shape=tableRow;horizontal=0;startSize=0;swimlaneHead=0;swimlaneBody=0;strokeColor=inherit;top=0;left=0;bottom=0;right=0;collapsible=0;dropTarget=0;fillColor=none;points=[[0,0.5],[1,0.5]];portConstraint=eastwest;fontSize=16;strokeWidth=2;" vertex="1" parent="2xi72jJKv009g28mrc_R-14">
          <mxGeometry y="30" width="670" height="60" as="geometry" />
        </mxCell>
        <mxCell id="2xi72jJKv009g28mrc_R-20" value="User" style="shape=partialRectangle;html=1;whiteSpace=wrap;connectable=0;strokeColor=inherit;overflow=hidden;fillColor=none;top=0;left=0;bottom=0;right=0;pointerEvents=1;fontSize=16;strokeWidth=2;" vertex="1" parent="2xi72jJKv009g28mrc_R-19">
          <mxGeometry width="210" height="60" as="geometry">
            <mxRectangle width="210" height="60" as="alternateBounds" />
          </mxGeometry>
        </mxCell>
        <mxCell id="2xi72jJKv009g28mrc_R-21" value="----" style="shape=partialRectangle;html=1;whiteSpace=wrap;connectable=0;strokeColor=inherit;overflow=hidden;fillColor=none;top=0;left=0;bottom=0;right=0;pointerEvents=1;fontSize=16;strokeWidth=2;" vertex="1" parent="2xi72jJKv009g28mrc_R-19">
          <mxGeometry x="210" width="237" height="60" as="geometry">
            <mxRectangle width="237" height="60" as="alternateBounds" />
          </mxGeometry>
        </mxCell>
        <mxCell id="2xi72jJKv009g28mrc_R-22" value="Объект пользователя, который имеет атрибуты и ссылки на другие объекты&amp;nbsp;" style="shape=partialRectangle;html=1;whiteSpace=wrap;connectable=0;strokeColor=inherit;overflow=hidden;fillColor=none;top=0;left=0;bottom=0;right=0;pointerEvents=1;fontSize=16;strokeWidth=2;" vertex="1" parent="2xi72jJKv009g28mrc_R-19">
          <mxGeometry x="447" width="223" height="60" as="geometry">
            <mxRectangle width="223" height="60" as="alternateBounds" />
          </mxGeometry>
        </mxCell>
        <mxCell id="2xi72jJKv009g28mrc_R-23" value="" style="shape=tableRow;horizontal=0;startSize=0;swimlaneHead=0;swimlaneBody=0;strokeColor=inherit;top=0;left=0;bottom=0;right=0;collapsible=0;dropTarget=0;fillColor=none;points=[[0,0.5],[1,0.5]];portConstraint=eastwest;fontSize=16;strokeWidth=2;" vertex="1" parent="2xi72jJKv009g28mrc_R-14">
          <mxGeometry y="90" width="670" height="70" as="geometry" />
        </mxCell>
        <mxCell id="2xi72jJKv009g28mrc_R-24" value="" style="shape=partialRectangle;html=1;whiteSpace=wrap;connectable=0;strokeColor=inherit;overflow=hidden;fillColor=none;top=0;left=0;bottom=0;right=0;pointerEvents=1;fontSize=16;strokeWidth=2;" vertex="1" parent="2xi72jJKv009g28mrc_R-23">
          <mxGeometry width="210" height="70" as="geometry">
            <mxRectangle width="210" height="70" as="alternateBounds" />
          </mxGeometry>
        </mxCell>
        <mxCell id="2xi72jJKv009g28mrc_R-25" value="FI" style="shape=partialRectangle;html=1;whiteSpace=wrap;connectable=0;strokeColor=inherit;overflow=hidden;fillColor=none;top=0;left=0;bottom=0;right=0;pointerEvents=1;fontSize=16;strokeWidth=2;" vertex="1" parent="2xi72jJKv009g28mrc_R-23">
          <mxGeometry x="210" width="237" height="70" as="geometry">
            <mxRectangle width="237" height="70" as="alternateBounds" />
          </mxGeometry>
        </mxCell>
        <mxCell id="2xi72jJKv009g28mrc_R-26" value="ФИ Фамилия Имя пользователя на русском языке&amp;nbsp;" style="shape=partialRectangle;html=1;whiteSpace=wrap;connectable=0;strokeColor=inherit;overflow=hidden;fillColor=none;top=0;left=0;bottom=0;right=0;pointerEvents=1;fontSize=16;strokeWidth=2;" vertex="1" parent="2xi72jJKv009g28mrc_R-23">
          <mxGeometry x="447" width="223" height="70" as="geometry">
            <mxRectangle width="223" height="70" as="alternateBounds" />
          </mxGeometry>
        </mxCell>
        <mxCell id="2xi72jJKv009g28mrc_R-28" value="" style="shape=tableRow;horizontal=0;startSize=0;swimlaneHead=0;swimlaneBody=0;strokeColor=inherit;top=0;left=0;bottom=0;right=0;collapsible=0;dropTarget=0;fillColor=none;points=[[0,0.5],[1,0.5]];portConstraint=eastwest;fontSize=16;strokeWidth=2;" vertex="1" parent="2xi72jJKv009g28mrc_R-14">
          <mxGeometry y="160" width="670" height="40" as="geometry" />
        </mxCell>
        <mxCell id="2xi72jJKv009g28mrc_R-29" value="" style="shape=partialRectangle;html=1;whiteSpace=wrap;connectable=0;strokeColor=inherit;overflow=hidden;fillColor=none;top=0;left=0;bottom=0;right=0;pointerEvents=1;fontSize=16;strokeWidth=2;" vertex="1" parent="2xi72jJKv009g28mrc_R-28">
          <mxGeometry width="210" height="40" as="geometry">
            <mxRectangle width="210" height="40" as="alternateBounds" />
          </mxGeometry>
        </mxCell>
        <mxCell id="2xi72jJKv009g28mrc_R-30" value="Email" style="shape=partialRectangle;html=1;whiteSpace=wrap;connectable=0;strokeColor=inherit;overflow=hidden;fillColor=none;top=0;left=0;bottom=0;right=0;pointerEvents=1;fontSize=16;strokeWidth=2;" vertex="1" parent="2xi72jJKv009g28mrc_R-28">
          <mxGeometry x="210" width="237" height="40" as="geometry">
            <mxRectangle width="237" height="40" as="alternateBounds" />
          </mxGeometry>
        </mxCell>
        <mxCell id="2xi72jJKv009g28mrc_R-31" value="электронная почта пользователя&amp;nbsp;" style="shape=partialRectangle;html=1;whiteSpace=wrap;connectable=0;strokeColor=inherit;overflow=hidden;fillColor=none;top=0;left=0;bottom=0;right=0;pointerEvents=1;fontSize=16;strokeWidth=2;" vertex="1" parent="2xi72jJKv009g28mrc_R-28">
          <mxGeometry x="447" width="223" height="40" as="geometry">
            <mxRectangle width="223" height="40" as="alternateBounds" />
          </mxGeometry>
        </mxCell>
        <mxCell id="2xi72jJKv009g28mrc_R-40" value="" style="shape=table;startSize=0;container=1;collapsible=0;childLayout=tableLayout;fontSize=16;strokeWidth=2;" vertex="1" parent="1">
          <mxGeometry x="50" y="310" width="670" height="120" as="geometry" />
        </mxCell>
        <mxCell id="2xi72jJKv009g28mrc_R-41" value="" style="shape=tableRow;horizontal=0;startSize=0;swimlaneHead=0;swimlaneBody=0;strokeColor=inherit;top=0;left=0;bottom=0;right=0;collapsible=0;dropTarget=0;fillColor=none;points=[[0,0.5],[1,0.5]];portConstraint=eastwest;fontSize=16;strokeWidth=2;" vertex="1" parent="2xi72jJKv009g28mrc_R-40">
          <mxGeometry width="670" height="40" as="geometry" />
        </mxCell>
        <mxCell id="2xi72jJKv009g28mrc_R-42" value="Родительская сущность&amp;nbsp;" style="shape=partialRectangle;html=1;whiteSpace=wrap;connectable=0;strokeColor=inherit;overflow=hidden;fillColor=none;top=0;left=0;bottom=0;right=0;pointerEvents=1;fontSize=16;strokeWidth=2;" vertex="1" parent="2xi72jJKv009g28mrc_R-41">
          <mxGeometry width="223" height="40" as="geometry">
            <mxRectangle width="223" height="40" as="alternateBounds" />
          </mxGeometry>
        </mxCell>
        <mxCell id="2xi72jJKv009g28mrc_R-43" value="Атрибут" style="shape=partialRectangle;html=1;whiteSpace=wrap;connectable=0;strokeColor=inherit;overflow=hidden;fillColor=none;top=0;left=0;bottom=0;right=0;pointerEvents=1;fontSize=16;strokeWidth=2;" vertex="1" parent="2xi72jJKv009g28mrc_R-41">
          <mxGeometry x="223" width="224" height="40" as="geometry">
            <mxRectangle width="224" height="40" as="alternateBounds" />
          </mxGeometry>
        </mxCell>
        <mxCell id="2xi72jJKv009g28mrc_R-44" value="Описание" style="shape=partialRectangle;html=1;whiteSpace=wrap;connectable=0;strokeColor=inherit;overflow=hidden;fillColor=none;top=0;left=0;bottom=0;right=0;pointerEvents=1;fontSize=16;strokeWidth=2;" vertex="1" parent="2xi72jJKv009g28mrc_R-41">
          <mxGeometry x="447" width="223" height="40" as="geometry">
            <mxRectangle width="223" height="40" as="alternateBounds" />
          </mxGeometry>
        </mxCell>
        <mxCell id="2xi72jJKv009g28mrc_R-45" value="" style="shape=tableRow;horizontal=0;startSize=0;swimlaneHead=0;swimlaneBody=0;strokeColor=inherit;top=0;left=0;bottom=0;right=0;collapsible=0;dropTarget=0;fillColor=none;points=[[0,0.5],[1,0.5]];portConstraint=eastwest;fontSize=16;strokeWidth=2;" vertex="1" parent="2xi72jJKv009g28mrc_R-40">
          <mxGeometry y="40" width="670" height="40" as="geometry" />
        </mxCell>
        <mxCell id="2xi72jJKv009g28mrc_R-46" value="Product" style="shape=partialRectangle;html=1;whiteSpace=wrap;connectable=0;strokeColor=inherit;overflow=hidden;fillColor=none;top=0;left=0;bottom=0;right=0;pointerEvents=1;fontSize=16;strokeWidth=2;" vertex="1" parent="2xi72jJKv009g28mrc_R-45">
          <mxGeometry width="223" height="40" as="geometry">
            <mxRectangle width="223" height="40" as="alternateBounds" />
          </mxGeometry>
        </mxCell>
        <mxCell id="2xi72jJKv009g28mrc_R-47" value="----" style="shape=partialRectangle;html=1;whiteSpace=wrap;connectable=0;strokeColor=inherit;overflow=hidden;fillColor=none;top=0;left=0;bottom=0;right=0;pointerEvents=1;fontSize=16;strokeWidth=2;" vertex="1" parent="2xi72jJKv009g28mrc_R-45">
          <mxGeometry x="223" width="224" height="40" as="geometry">
            <mxRectangle width="224" height="40" as="alternateBounds" />
          </mxGeometry>
        </mxCell>
        <mxCell id="2xi72jJKv009g28mrc_R-48" value="Объект товара" style="shape=partialRectangle;html=1;whiteSpace=wrap;connectable=0;strokeColor=#d6b656;overflow=hidden;fillColor=none;top=0;left=0;bottom=0;right=0;pointerEvents=1;fontSize=16;strokeWidth=5;perimeterSpacing=8;" vertex="1" parent="2xi72jJKv009g28mrc_R-45">
          <mxGeometry x="447" width="223" height="40" as="geometry">
            <mxRectangle width="223" height="40" as="alternateBounds" />
          </mxGeometry>
        </mxCell>
        <mxCell id="2xi72jJKv009g28mrc_R-49" value="" style="shape=tableRow;horizontal=0;startSize=0;swimlaneHead=0;swimlaneBody=0;strokeColor=inherit;top=0;left=0;bottom=0;right=0;collapsible=0;dropTarget=0;fillColor=none;points=[[0,0.5],[1,0.5]];portConstraint=eastwest;fontSize=16;strokeWidth=2;" vertex="1" parent="2xi72jJKv009g28mrc_R-40">
          <mxGeometry y="80" width="670" height="40" as="geometry" />
        </mxCell>
        <mxCell id="2xi72jJKv009g28mrc_R-50" value="" style="shape=partialRectangle;html=1;whiteSpace=wrap;connectable=0;strokeColor=inherit;overflow=hidden;fillColor=none;top=0;left=0;bottom=0;right=0;pointerEvents=1;fontSize=16;strokeWidth=2;" vertex="1" parent="2xi72jJKv009g28mrc_R-49">
          <mxGeometry width="223" height="40" as="geometry">
            <mxRectangle width="223" height="40" as="alternateBounds" />
          </mxGeometry>
        </mxCell>
        <mxCell id="2xi72jJKv009g28mrc_R-51" value="Title" style="shape=partialRectangle;html=1;whiteSpace=wrap;connectable=0;strokeColor=inherit;overflow=hidden;fillColor=none;top=0;left=0;bottom=0;right=0;pointerEvents=1;fontSize=16;strokeWidth=2;" vertex="1" parent="2xi72jJKv009g28mrc_R-49">
          <mxGeometry x="223" width="224" height="40" as="geometry">
            <mxRectangle width="224" height="40" as="alternateBounds" />
          </mxGeometry>
        </mxCell>
        <mxCell id="2xi72jJKv009g28mrc_R-52" value="Название товара" style="shape=partialRectangle;html=1;whiteSpace=wrap;connectable=0;strokeColor=inherit;overflow=hidden;fillColor=none;top=0;left=0;bottom=0;right=0;pointerEvents=1;fontSize=16;strokeWidth=2;" vertex="1" parent="2xi72jJKv009g28mrc_R-49">
          <mxGeometry x="447" width="223" height="40" as="geometry">
            <mxRectangle width="223" height="40" as="alternateBounds" />
          </mxGeometry>
        </mxCell>
        <mxCell id="2xi72jJKv009g28mrc_R-53" value="" style="shape=table;startSize=0;container=1;collapsible=0;childLayout=tableLayout;fontSize=16;strokeWidth=2;" vertex="1" parent="1">
          <mxGeometry x="50" y="430" width="670" height="80" as="geometry" />
        </mxCell>
        <mxCell id="2xi72jJKv009g28mrc_R-54" value="" style="shape=tableRow;horizontal=0;startSize=0;swimlaneHead=0;swimlaneBody=0;strokeColor=inherit;top=0;left=0;bottom=0;right=0;collapsible=0;dropTarget=0;fillColor=none;points=[[0,0.5],[1,0.5]];portConstraint=eastwest;fontSize=16;strokeWidth=2;" vertex="1" parent="2xi72jJKv009g28mrc_R-53">
          <mxGeometry width="670" height="40" as="geometry" />
        </mxCell>
        <mxCell id="2xi72jJKv009g28mrc_R-55" value="" style="shape=partialRectangle;html=1;whiteSpace=wrap;connectable=0;strokeColor=inherit;overflow=hidden;fillColor=none;top=0;left=0;bottom=0;right=0;pointerEvents=1;fontSize=16;strokeWidth=2;" vertex="1" parent="2xi72jJKv009g28mrc_R-54">
          <mxGeometry width="223" height="40" as="geometry">
            <mxRectangle width="223" height="40" as="alternateBounds" />
          </mxGeometry>
        </mxCell>
        <mxCell id="2xi72jJKv009g28mrc_R-56" value="Description" style="shape=partialRectangle;html=1;whiteSpace=wrap;connectable=0;strokeColor=inherit;overflow=hidden;fillColor=none;top=0;left=0;bottom=0;right=0;pointerEvents=1;fontSize=16;strokeWidth=2;" vertex="1" parent="2xi72jJKv009g28mrc_R-54">
          <mxGeometry x="223" width="224" height="40" as="geometry">
            <mxRectangle width="224" height="40" as="alternateBounds" />
          </mxGeometry>
        </mxCell>
        <mxCell id="2xi72jJKv009g28mrc_R-57" value="Описание товара" style="shape=partialRectangle;html=1;whiteSpace=wrap;connectable=0;strokeColor=inherit;overflow=hidden;fillColor=none;top=0;left=0;bottom=0;right=0;pointerEvents=1;fontSize=16;strokeWidth=2;" vertex="1" parent="2xi72jJKv009g28mrc_R-54">
          <mxGeometry x="447" width="223" height="40" as="geometry">
            <mxRectangle width="223" height="40" as="alternateBounds" />
          </mxGeometry>
        </mxCell>
        <mxCell id="2xi72jJKv009g28mrc_R-58" value="" style="shape=tableRow;horizontal=0;startSize=0;swimlaneHead=0;swimlaneBody=0;strokeColor=inherit;top=0;left=0;bottom=0;right=0;collapsible=0;dropTarget=0;fillColor=none;points=[[0,0.5],[1,0.5]];portConstraint=eastwest;fontSize=16;strokeWidth=2;" vertex="1" parent="2xi72jJKv009g28mrc_R-53">
          <mxGeometry y="40" width="670" height="40" as="geometry" />
        </mxCell>
        <mxCell id="2xi72jJKv009g28mrc_R-59" value="" style="shape=partialRectangle;html=1;whiteSpace=wrap;connectable=0;strokeColor=inherit;overflow=hidden;fillColor=none;top=0;left=0;bottom=0;right=0;pointerEvents=1;fontSize=16;strokeWidth=2;" vertex="1" parent="2xi72jJKv009g28mrc_R-58">
          <mxGeometry width="223" height="40" as="geometry">
            <mxRectangle width="223" height="40" as="alternateBounds" />
          </mxGeometry>
        </mxCell>
        <mxCell id="2xi72jJKv009g28mrc_R-60" value="Price" style="shape=partialRectangle;html=1;whiteSpace=wrap;connectable=0;strokeColor=inherit;overflow=hidden;fillColor=none;top=0;left=0;bottom=0;right=0;pointerEvents=1;fontSize=16;strokeWidth=2;" vertex="1" parent="2xi72jJKv009g28mrc_R-58">
          <mxGeometry x="223" width="224" height="40" as="geometry">
            <mxRectangle width="224" height="40" as="alternateBounds" />
          </mxGeometry>
        </mxCell>
        <mxCell id="2xi72jJKv009g28mrc_R-61" value="Цена товара" style="shape=partialRectangle;html=1;whiteSpace=wrap;connectable=0;strokeColor=inherit;overflow=hidden;fillColor=none;top=0;left=0;bottom=0;right=0;pointerEvents=1;fontSize=16;strokeWidth=2;" vertex="1" parent="2xi72jJKv009g28mrc_R-58">
          <mxGeometry x="447" width="223" height="40" as="geometry">
            <mxRectangle width="223" height="40" as="alternateBounds" />
          </mxGeometry>
        </mxCell>
        <mxCell id="2xi72jJKv009g28mrc_R-66" value="&lt;span style=&quot;font-size: 14px;&quot;&gt;Объект&amp;nbsp;&lt;/span&gt;&lt;b style=&quot;font-size: 14px;&quot;&gt;User&lt;/b&gt;" style="text;html=1;align=center;verticalAlign=middle;whiteSpace=wrap;rounded=0;" vertex="1" parent="1">
          <mxGeometry x="60" y="40" width="120" height="30" as="geometry" />
        </mxCell>
        <mxCell id="2xi72jJKv009g28mrc_R-93" value="&lt;span style=&quot;font-size: 14px;&quot;&gt;Объект &lt;b&gt;Product&lt;/b&gt;&lt;/span&gt;" style="text;html=1;align=center;verticalAlign=middle;whiteSpace=wrap;rounded=0;" vertex="1" parent="1">
          <mxGeometry x="60" y="280" width="120" height="30" as="geometry" />
        </mxCell>
        <mxCell id="2xi72jJKv009g28mrc_R-94" value="" style="shape=table;startSize=0;container=1;collapsible=0;childLayout=tableLayout;fontSize=16;strokeWidth=2;" vertex="1" parent="1">
          <mxGeometry x="50" y="560" width="670" height="120" as="geometry" />
        </mxCell>
        <mxCell id="2xi72jJKv009g28mrc_R-95" value="" style="shape=tableRow;horizontal=0;startSize=0;swimlaneHead=0;swimlaneBody=0;strokeColor=inherit;top=0;left=0;bottom=0;right=0;collapsible=0;dropTarget=0;fillColor=none;points=[[0,0.5],[1,0.5]];portConstraint=eastwest;fontSize=16;strokeWidth=2;" vertex="1" parent="2xi72jJKv009g28mrc_R-94">
          <mxGeometry width="670" height="40" as="geometry" />
        </mxCell>
        <mxCell id="2xi72jJKv009g28mrc_R-96" value="Дочерняя сущность&amp;nbsp;" style="shape=partialRectangle;html=1;whiteSpace=wrap;connectable=0;strokeColor=inherit;overflow=hidden;fillColor=none;top=0;left=0;bottom=0;right=0;pointerEvents=1;fontSize=16;strokeWidth=2;" vertex="1" parent="2xi72jJKv009g28mrc_R-95">
          <mxGeometry width="223" height="40" as="geometry">
            <mxRectangle width="223" height="40" as="alternateBounds" />
          </mxGeometry>
        </mxCell>
        <mxCell id="2xi72jJKv009g28mrc_R-97" value="Атрибут" style="shape=partialRectangle;html=1;whiteSpace=wrap;connectable=0;strokeColor=inherit;overflow=hidden;fillColor=none;top=0;left=0;bottom=0;right=0;pointerEvents=1;fontSize=16;strokeWidth=2;" vertex="1" parent="2xi72jJKv009g28mrc_R-95">
          <mxGeometry x="223" width="224" height="40" as="geometry">
            <mxRectangle width="224" height="40" as="alternateBounds" />
          </mxGeometry>
        </mxCell>
        <mxCell id="2xi72jJKv009g28mrc_R-98" value="Описание" style="shape=partialRectangle;html=1;whiteSpace=wrap;connectable=0;strokeColor=inherit;overflow=hidden;fillColor=none;top=0;left=0;bottom=0;right=0;pointerEvents=1;fontSize=16;strokeWidth=2;" vertex="1" parent="2xi72jJKv009g28mrc_R-95">
          <mxGeometry x="447" width="223" height="40" as="geometry">
            <mxRectangle width="223" height="40" as="alternateBounds" />
          </mxGeometry>
        </mxCell>
        <mxCell id="2xi72jJKv009g28mrc_R-99" value="" style="shape=tableRow;horizontal=0;startSize=0;swimlaneHead=0;swimlaneBody=0;strokeColor=inherit;top=0;left=0;bottom=0;right=0;collapsible=0;dropTarget=0;fillColor=none;points=[[0,0.5],[1,0.5]];portConstraint=eastwest;fontSize=16;strokeWidth=2;" vertex="1" parent="2xi72jJKv009g28mrc_R-94">
          <mxGeometry y="40" width="670" height="40" as="geometry" />
        </mxCell>
        <mxCell id="2xi72jJKv009g28mrc_R-100" value="Review" style="shape=partialRectangle;html=1;whiteSpace=wrap;connectable=0;strokeColor=inherit;overflow=hidden;fillColor=none;top=0;left=0;bottom=0;right=0;pointerEvents=1;fontSize=16;strokeWidth=2;" vertex="1" parent="2xi72jJKv009g28mrc_R-99">
          <mxGeometry width="223" height="40" as="geometry">
            <mxRectangle width="223" height="40" as="alternateBounds" />
          </mxGeometry>
        </mxCell>
        <mxCell id="2xi72jJKv009g28mrc_R-101" value="----" style="shape=partialRectangle;html=1;whiteSpace=wrap;connectable=0;strokeColor=inherit;overflow=hidden;fillColor=none;top=0;left=0;bottom=0;right=0;pointerEvents=1;fontSize=16;strokeWidth=2;" vertex="1" parent="2xi72jJKv009g28mrc_R-99">
          <mxGeometry x="223" width="224" height="40" as="geometry">
            <mxRectangle width="224" height="40" as="alternateBounds" />
          </mxGeometry>
        </mxCell>
        <mxCell id="2xi72jJKv009g28mrc_R-102" value="Объект отзыва" style="shape=partialRectangle;html=1;whiteSpace=wrap;connectable=0;overflow=hidden;top=0;left=0;bottom=0;right=0;pointerEvents=1;fontSize=16;strokeWidth=3;perimeterSpacing=5;fillColor=none;" vertex="1" parent="2xi72jJKv009g28mrc_R-99">
          <mxGeometry x="447" width="223" height="40" as="geometry">
            <mxRectangle width="223" height="40" as="alternateBounds" />
          </mxGeometry>
        </mxCell>
        <mxCell id="2xi72jJKv009g28mrc_R-103" value="" style="shape=tableRow;horizontal=0;startSize=0;swimlaneHead=0;swimlaneBody=0;strokeColor=inherit;top=0;left=0;bottom=0;right=0;collapsible=0;dropTarget=0;fillColor=none;points=[[0,0.5],[1,0.5]];portConstraint=eastwest;fontSize=16;strokeWidth=2;" vertex="1" parent="2xi72jJKv009g28mrc_R-94">
          <mxGeometry y="80" width="670" height="40" as="geometry" />
        </mxCell>
        <mxCell id="2xi72jJKv009g28mrc_R-104" value="" style="shape=partialRectangle;html=1;whiteSpace=wrap;connectable=0;strokeColor=inherit;overflow=hidden;fillColor=none;top=0;left=0;bottom=0;right=0;pointerEvents=1;fontSize=16;strokeWidth=2;" vertex="1" parent="2xi72jJKv009g28mrc_R-103">
          <mxGeometry width="223" height="40" as="geometry">
            <mxRectangle width="223" height="40" as="alternateBounds" />
          </mxGeometry>
        </mxCell>
        <mxCell id="2xi72jJKv009g28mrc_R-105" value="Content" style="shape=partialRectangle;html=1;whiteSpace=wrap;connectable=0;strokeColor=inherit;overflow=hidden;fillColor=none;top=0;left=0;bottom=0;right=0;pointerEvents=1;fontSize=16;strokeWidth=2;" vertex="1" parent="2xi72jJKv009g28mrc_R-103">
          <mxGeometry x="223" width="224" height="40" as="geometry">
            <mxRectangle width="224" height="40" as="alternateBounds" />
          </mxGeometry>
        </mxCell>
        <mxCell id="2xi72jJKv009g28mrc_R-106" value="Отзыв о товаре" style="shape=partialRectangle;html=1;whiteSpace=wrap;connectable=0;strokeColor=inherit;overflow=hidden;fillColor=none;top=0;left=0;bottom=0;right=0;pointerEvents=1;fontSize=16;strokeWidth=2;" vertex="1" parent="2xi72jJKv009g28mrc_R-103">
          <mxGeometry x="447" width="223" height="40" as="geometry">
            <mxRectangle width="223" height="40" as="alternateBounds" />
          </mxGeometry>
        </mxCell>
        <mxCell id="2xi72jJKv009g28mrc_R-107" value="" style="shape=table;startSize=0;container=1;collapsible=0;childLayout=tableLayout;fontSize=16;strokeWidth=2;" vertex="1" parent="1">
          <mxGeometry x="50" y="680" width="670" height="80" as="geometry" />
        </mxCell>
        <mxCell id="2xi72jJKv009g28mrc_R-108" value="" style="shape=tableRow;horizontal=0;startSize=0;swimlaneHead=0;swimlaneBody=0;strokeColor=inherit;top=0;left=0;bottom=0;right=0;collapsible=0;dropTarget=0;fillColor=none;points=[[0,0.5],[1,0.5]];portConstraint=eastwest;fontSize=16;strokeWidth=2;" vertex="1" parent="2xi72jJKv009g28mrc_R-107">
          <mxGeometry width="670" height="40" as="geometry" />
        </mxCell>
        <mxCell id="2xi72jJKv009g28mrc_R-109" value="" style="shape=partialRectangle;html=1;whiteSpace=wrap;connectable=0;strokeColor=inherit;overflow=hidden;fillColor=none;top=0;left=0;bottom=0;right=0;pointerEvents=1;fontSize=16;strokeWidth=2;" vertex="1" parent="2xi72jJKv009g28mrc_R-108">
          <mxGeometry width="223" height="40" as="geometry">
            <mxRectangle width="223" height="40" as="alternateBounds" />
          </mxGeometry>
        </mxCell>
        <mxCell id="2xi72jJKv009g28mrc_R-110" value="Rating" style="shape=partialRectangle;html=1;whiteSpace=wrap;connectable=0;strokeColor=inherit;overflow=hidden;fillColor=none;top=0;left=0;bottom=0;right=0;pointerEvents=1;fontSize=16;strokeWidth=2;" vertex="1" parent="2xi72jJKv009g28mrc_R-108">
          <mxGeometry x="223" width="224" height="40" as="geometry">
            <mxRectangle width="224" height="40" as="alternateBounds" />
          </mxGeometry>
        </mxCell>
        <mxCell id="2xi72jJKv009g28mrc_R-111" value="Оценка товара" style="shape=partialRectangle;html=1;whiteSpace=wrap;connectable=0;strokeColor=inherit;overflow=hidden;fillColor=none;top=0;left=0;bottom=0;right=0;pointerEvents=1;fontSize=16;strokeWidth=2;" vertex="1" parent="2xi72jJKv009g28mrc_R-108">
          <mxGeometry x="447" width="223" height="40" as="geometry">
            <mxRectangle width="223" height="40" as="alternateBounds" />
          </mxGeometry>
        </mxCell>
        <mxCell id="2xi72jJKv009g28mrc_R-112" value="" style="shape=tableRow;horizontal=0;startSize=0;swimlaneHead=0;swimlaneBody=0;strokeColor=inherit;top=0;left=0;bottom=0;right=0;collapsible=0;dropTarget=0;fillColor=none;points=[[0,0.5],[1,0.5]];portConstraint=eastwest;fontSize=16;strokeWidth=2;" vertex="1" parent="2xi72jJKv009g28mrc_R-107">
          <mxGeometry y="40" width="670" height="40" as="geometry" />
        </mxCell>
        <mxCell id="2xi72jJKv009g28mrc_R-113" value="" style="shape=partialRectangle;html=1;whiteSpace=wrap;connectable=0;strokeColor=inherit;overflow=hidden;fillColor=none;top=0;left=0;bottom=0;right=0;pointerEvents=1;fontSize=16;strokeWidth=2;" vertex="1" parent="2xi72jJKv009g28mrc_R-112">
          <mxGeometry width="223" height="40" as="geometry">
            <mxRectangle width="223" height="40" as="alternateBounds" />
          </mxGeometry>
        </mxCell>
        <mxCell id="2xi72jJKv009g28mrc_R-114" value="Date" style="shape=partialRectangle;html=1;whiteSpace=wrap;connectable=0;strokeColor=inherit;overflow=hidden;fillColor=none;top=0;left=0;bottom=0;right=0;pointerEvents=1;fontSize=16;strokeWidth=2;" vertex="1" parent="2xi72jJKv009g28mrc_R-112">
          <mxGeometry x="223" width="224" height="40" as="geometry">
            <mxRectangle width="224" height="40" as="alternateBounds" />
          </mxGeometry>
        </mxCell>
        <mxCell id="2xi72jJKv009g28mrc_R-115" value="Дата отзыва" style="shape=partialRectangle;html=1;whiteSpace=wrap;connectable=0;strokeColor=inherit;overflow=hidden;fillColor=none;top=0;left=0;bottom=0;right=0;pointerEvents=1;fontSize=16;strokeWidth=2;" vertex="1" parent="2xi72jJKv009g28mrc_R-112">
          <mxGeometry x="447" width="223" height="40" as="geometry">
            <mxRectangle width="223" height="40" as="alternateBounds" />
          </mxGeometry>
        </mxCell>
        <mxCell id="2xi72jJKv009g28mrc_R-120" value="&lt;span style=&quot;font-size: 14px;&quot;&gt;Объект &lt;b&gt;Review&lt;/b&gt;&lt;/span&gt;" style="text;html=1;align=center;verticalAlign=middle;whiteSpace=wrap;rounded=0;" vertex="1" parent="1">
          <mxGeometry x="60" y="530" width="120" height="30" as="geometry" />
        </mxCell>
        <mxCell id="2xi72jJKv009g28mrc_R-121" value="" style="shape=table;startSize=0;container=1;collapsible=0;childLayout=tableLayout;fontSize=16;strokeWidth=2;" vertex="1" parent="1">
          <mxGeometry x="50" y="810" width="670" height="120" as="geometry" />
        </mxCell>
        <mxCell id="2xi72jJKv009g28mrc_R-122" value="" style="shape=tableRow;horizontal=0;startSize=0;swimlaneHead=0;swimlaneBody=0;strokeColor=inherit;top=0;left=0;bottom=0;right=0;collapsible=0;dropTarget=0;fillColor=none;points=[[0,0.5],[1,0.5]];portConstraint=eastwest;fontSize=16;strokeWidth=2;" vertex="1" parent="2xi72jJKv009g28mrc_R-121">
          <mxGeometry width="670" height="40" as="geometry" />
        </mxCell>
        <mxCell id="2xi72jJKv009g28mrc_R-123" value="Родительская сущность&amp;nbsp;" style="shape=partialRectangle;html=1;whiteSpace=wrap;connectable=0;strokeColor=inherit;overflow=hidden;fillColor=none;top=0;left=0;bottom=0;right=0;pointerEvents=1;fontSize=16;strokeWidth=2;" vertex="1" parent="2xi72jJKv009g28mrc_R-122">
          <mxGeometry width="223" height="40" as="geometry">
            <mxRectangle width="223" height="40" as="alternateBounds" />
          </mxGeometry>
        </mxCell>
        <mxCell id="2xi72jJKv009g28mrc_R-124" value="Атрибут" style="shape=partialRectangle;html=1;whiteSpace=wrap;connectable=0;strokeColor=inherit;overflow=hidden;fillColor=none;top=0;left=0;bottom=0;right=0;pointerEvents=1;fontSize=16;strokeWidth=2;" vertex="1" parent="2xi72jJKv009g28mrc_R-122">
          <mxGeometry x="223" width="224" height="40" as="geometry">
            <mxRectangle width="224" height="40" as="alternateBounds" />
          </mxGeometry>
        </mxCell>
        <mxCell id="2xi72jJKv009g28mrc_R-125" value="Описание" style="shape=partialRectangle;html=1;whiteSpace=wrap;connectable=0;strokeColor=inherit;overflow=hidden;fillColor=none;top=0;left=0;bottom=0;right=0;pointerEvents=1;fontSize=16;strokeWidth=2;" vertex="1" parent="2xi72jJKv009g28mrc_R-122">
          <mxGeometry x="447" width="223" height="40" as="geometry">
            <mxRectangle width="223" height="40" as="alternateBounds" />
          </mxGeometry>
        </mxCell>
        <mxCell id="2xi72jJKv009g28mrc_R-126" value="" style="shape=tableRow;horizontal=0;startSize=0;swimlaneHead=0;swimlaneBody=0;strokeColor=inherit;top=0;left=0;bottom=0;right=0;collapsible=0;dropTarget=0;fillColor=none;points=[[0,0.5],[1,0.5]];portConstraint=eastwest;fontSize=16;strokeWidth=2;" vertex="1" parent="2xi72jJKv009g28mrc_R-121">
          <mxGeometry y="40" width="670" height="40" as="geometry" />
        </mxCell>
        <mxCell id="2xi72jJKv009g28mrc_R-127" value="Purchases" style="shape=partialRectangle;html=1;whiteSpace=wrap;connectable=0;strokeColor=inherit;overflow=hidden;fillColor=none;top=0;left=0;bottom=0;right=0;pointerEvents=1;fontSize=16;strokeWidth=2;" vertex="1" parent="2xi72jJKv009g28mrc_R-126">
          <mxGeometry width="223" height="40" as="geometry">
            <mxRectangle width="223" height="40" as="alternateBounds" />
          </mxGeometry>
        </mxCell>
        <mxCell id="2xi72jJKv009g28mrc_R-128" value="----" style="shape=partialRectangle;html=1;whiteSpace=wrap;connectable=0;strokeColor=inherit;overflow=hidden;fillColor=none;top=0;left=0;bottom=0;right=0;pointerEvents=1;fontSize=16;strokeWidth=2;" vertex="1" parent="2xi72jJKv009g28mrc_R-126">
          <mxGeometry x="223" width="224" height="40" as="geometry">
            <mxRectangle width="224" height="40" as="alternateBounds" />
          </mxGeometry>
        </mxCell>
        <mxCell id="2xi72jJKv009g28mrc_R-129" value="Объект товара" style="shape=partialRectangle;html=1;whiteSpace=wrap;connectable=0;overflow=hidden;top=0;left=0;bottom=0;right=0;pointerEvents=1;fontSize=16;strokeWidth=2;fillColor=none;" vertex="1" parent="2xi72jJKv009g28mrc_R-126">
          <mxGeometry x="447" width="223" height="40" as="geometry">
            <mxRectangle width="223" height="40" as="alternateBounds" />
          </mxGeometry>
        </mxCell>
        <mxCell id="2xi72jJKv009g28mrc_R-130" value="" style="shape=tableRow;horizontal=0;startSize=0;swimlaneHead=0;swimlaneBody=0;strokeColor=inherit;top=0;left=0;bottom=0;right=0;collapsible=0;dropTarget=0;fillColor=none;points=[[0,0.5],[1,0.5]];portConstraint=eastwest;fontSize=16;strokeWidth=2;" vertex="1" parent="2xi72jJKv009g28mrc_R-121">
          <mxGeometry y="80" width="670" height="40" as="geometry" />
        </mxCell>
        <mxCell id="2xi72jJKv009g28mrc_R-131" value="" style="shape=partialRectangle;html=1;whiteSpace=wrap;connectable=0;strokeColor=inherit;overflow=hidden;fillColor=none;top=0;left=0;bottom=0;right=0;pointerEvents=1;fontSize=16;strokeWidth=2;" vertex="1" parent="2xi72jJKv009g28mrc_R-130">
          <mxGeometry width="223" height="40" as="geometry">
            <mxRectangle width="223" height="40" as="alternateBounds" />
          </mxGeometry>
        </mxCell>
        <mxCell id="2xi72jJKv009g28mrc_R-132" value="PurchasesDate" style="shape=partialRectangle;html=1;whiteSpace=wrap;connectable=0;strokeColor=inherit;overflow=hidden;fillColor=none;top=0;left=0;bottom=0;right=0;pointerEvents=1;fontSize=16;strokeWidth=2;" vertex="1" parent="2xi72jJKv009g28mrc_R-130">
          <mxGeometry x="223" width="224" height="40" as="geometry">
            <mxRectangle width="224" height="40" as="alternateBounds" />
          </mxGeometry>
        </mxCell>
        <mxCell id="2xi72jJKv009g28mrc_R-133" value="Дата и время покупки" style="shape=partialRectangle;html=1;whiteSpace=wrap;connectable=0;strokeColor=inherit;overflow=hidden;fillColor=none;top=0;left=0;bottom=0;right=0;pointerEvents=1;fontSize=16;strokeWidth=2;" vertex="1" parent="2xi72jJKv009g28mrc_R-130">
          <mxGeometry x="447" width="223" height="40" as="geometry">
            <mxRectangle width="223" height="40" as="alternateBounds" />
          </mxGeometry>
        </mxCell>
        <mxCell id="2xi72jJKv009g28mrc_R-134" value="" style="shape=table;startSize=0;container=1;collapsible=0;childLayout=tableLayout;fontSize=16;strokeWidth=2;" vertex="1" parent="1">
          <mxGeometry x="50" y="930" width="670" height="40" as="geometry" />
        </mxCell>
        <mxCell id="2xi72jJKv009g28mrc_R-135" value="" style="shape=tableRow;horizontal=0;startSize=0;swimlaneHead=0;swimlaneBody=0;strokeColor=inherit;top=0;left=0;bottom=0;right=0;collapsible=0;dropTarget=0;fillColor=none;points=[[0,0.5],[1,0.5]];portConstraint=eastwest;fontSize=16;strokeWidth=2;" vertex="1" parent="2xi72jJKv009g28mrc_R-134">
          <mxGeometry width="670" height="40" as="geometry" />
        </mxCell>
        <mxCell id="2xi72jJKv009g28mrc_R-136" value="" style="shape=partialRectangle;html=1;whiteSpace=wrap;connectable=0;strokeColor=inherit;overflow=hidden;fillColor=none;top=0;left=0;bottom=0;right=0;pointerEvents=1;fontSize=16;strokeWidth=2;" vertex="1" parent="2xi72jJKv009g28mrc_R-135">
          <mxGeometry width="223" height="40" as="geometry">
            <mxRectangle width="223" height="40" as="alternateBounds" />
          </mxGeometry>
        </mxCell>
        <mxCell id="2xi72jJKv009g28mrc_R-137" value="Quantity" style="shape=partialRectangle;html=1;whiteSpace=wrap;connectable=0;strokeColor=inherit;overflow=hidden;fillColor=none;top=0;left=0;bottom=0;right=0;pointerEvents=1;fontSize=16;strokeWidth=2;" vertex="1" parent="2xi72jJKv009g28mrc_R-135">
          <mxGeometry x="223" width="224" height="40" as="geometry">
            <mxRectangle width="224" height="40" as="alternateBounds" />
          </mxGeometry>
        </mxCell>
        <mxCell id="2xi72jJKv009g28mrc_R-138" value="Количество товаров" style="shape=partialRectangle;html=1;whiteSpace=wrap;connectable=0;strokeColor=inherit;overflow=hidden;fillColor=none;top=0;left=0;bottom=0;right=0;pointerEvents=1;fontSize=16;strokeWidth=2;" vertex="1" parent="2xi72jJKv009g28mrc_R-135">
          <mxGeometry x="447" width="223" height="40" as="geometry">
            <mxRectangle width="223" height="40" as="alternateBounds" />
          </mxGeometry>
        </mxCell>
        <mxCell id="2xi72jJKv009g28mrc_R-143" value="&lt;span style=&quot;font-size: 14px;&quot;&gt;Объект &lt;b&gt;Purchases&lt;/b&gt;&lt;/span&gt;" style="text;html=1;align=center;verticalAlign=middle;whiteSpace=wrap;rounded=0;" vertex="1" parent="1">
          <mxGeometry x="60" y="780" width="130" height="30" as="geometry" />
        </mxCell>
        <mxCell id="2xi72jJKv009g28mrc_R-144" value="" style="shape=table;startSize=0;container=1;collapsible=0;childLayout=tableLayout;fontSize=16;strokeWidth=2;" vertex="1" parent="1">
          <mxGeometry x="50" y="1030" width="670" height="120" as="geometry" />
        </mxCell>
        <mxCell id="2xi72jJKv009g28mrc_R-145" value="" style="shape=tableRow;horizontal=0;startSize=0;swimlaneHead=0;swimlaneBody=0;strokeColor=inherit;top=0;left=0;bottom=0;right=0;collapsible=0;dropTarget=0;fillColor=none;points=[[0,0.5],[1,0.5]];portConstraint=eastwest;fontSize=16;strokeWidth=2;" vertex="1" parent="2xi72jJKv009g28mrc_R-144">
          <mxGeometry width="670" height="40" as="geometry" />
        </mxCell>
        <mxCell id="2xi72jJKv009g28mrc_R-146" value="Родительская сущность&amp;nbsp;" style="shape=partialRectangle;html=1;whiteSpace=wrap;connectable=0;strokeColor=inherit;overflow=hidden;fillColor=none;top=0;left=0;bottom=0;right=0;pointerEvents=1;fontSize=16;strokeWidth=2;" vertex="1" parent="2xi72jJKv009g28mrc_R-145">
          <mxGeometry width="223" height="40" as="geometry">
            <mxRectangle width="223" height="40" as="alternateBounds" />
          </mxGeometry>
        </mxCell>
        <mxCell id="2xi72jJKv009g28mrc_R-147" value="Атрибут" style="shape=partialRectangle;html=1;whiteSpace=wrap;connectable=0;strokeColor=inherit;overflow=hidden;fillColor=none;top=0;left=0;bottom=0;right=0;pointerEvents=1;fontSize=16;strokeWidth=2;" vertex="1" parent="2xi72jJKv009g28mrc_R-145">
          <mxGeometry x="223" width="224" height="40" as="geometry">
            <mxRectangle width="224" height="40" as="alternateBounds" />
          </mxGeometry>
        </mxCell>
        <mxCell id="2xi72jJKv009g28mrc_R-148" value="Описание" style="shape=partialRectangle;html=1;whiteSpace=wrap;connectable=0;strokeColor=inherit;overflow=hidden;fillColor=none;top=0;left=0;bottom=0;right=0;pointerEvents=1;fontSize=16;strokeWidth=2;" vertex="1" parent="2xi72jJKv009g28mrc_R-145">
          <mxGeometry x="447" width="223" height="40" as="geometry">
            <mxRectangle width="223" height="40" as="alternateBounds" />
          </mxGeometry>
        </mxCell>
        <mxCell id="2xi72jJKv009g28mrc_R-149" value="" style="shape=tableRow;horizontal=0;startSize=0;swimlaneHead=0;swimlaneBody=0;strokeColor=inherit;top=0;left=0;bottom=0;right=0;collapsible=0;dropTarget=0;fillColor=none;points=[[0,0.5],[1,0.5]];portConstraint=eastwest;fontSize=16;strokeWidth=2;perimeterSpacing=7;" vertex="1" parent="2xi72jJKv009g28mrc_R-144">
          <mxGeometry y="40" width="670" height="40" as="geometry" />
        </mxCell>
        <mxCell id="2xi72jJKv009g28mrc_R-150" value="Media" style="shape=partialRectangle;html=1;whiteSpace=wrap;connectable=0;strokeColor=inherit;overflow=hidden;fillColor=none;top=0;left=0;bottom=0;right=0;pointerEvents=1;fontSize=16;strokeWidth=2;" vertex="1" parent="2xi72jJKv009g28mrc_R-149">
          <mxGeometry width="223" height="40" as="geometry">
            <mxRectangle width="223" height="40" as="alternateBounds" />
          </mxGeometry>
        </mxCell>
        <mxCell id="2xi72jJKv009g28mrc_R-151" value="----" style="shape=partialRectangle;html=1;whiteSpace=wrap;connectable=0;strokeColor=inherit;overflow=hidden;fillColor=none;top=0;left=0;bottom=0;right=0;pointerEvents=1;fontSize=16;strokeWidth=2;" vertex="1" parent="2xi72jJKv009g28mrc_R-149">
          <mxGeometry x="223" width="224" height="40" as="geometry">
            <mxRectangle width="224" height="40" as="alternateBounds" />
          </mxGeometry>
        </mxCell>
        <mxCell id="2xi72jJKv009g28mrc_R-152" value="Объект файла" style="shape=partialRectangle;html=1;whiteSpace=wrap;connectable=0;strokeColor=#d6b656;overflow=hidden;fillColor=none;top=0;left=0;bottom=0;right=0;pointerEvents=1;fontSize=16;strokeWidth=6;" vertex="1" parent="2xi72jJKv009g28mrc_R-149">
          <mxGeometry x="447" width="223" height="40" as="geometry">
            <mxRectangle width="223" height="40" as="alternateBounds" />
          </mxGeometry>
        </mxCell>
        <mxCell id="2xi72jJKv009g28mrc_R-153" value="" style="shape=tableRow;horizontal=0;startSize=0;swimlaneHead=0;swimlaneBody=0;strokeColor=inherit;top=0;left=0;bottom=0;right=0;collapsible=0;dropTarget=0;fillColor=none;points=[[0,0.5],[1,0.5]];portConstraint=eastwest;fontSize=16;strokeWidth=2;" vertex="1" parent="2xi72jJKv009g28mrc_R-144">
          <mxGeometry y="80" width="670" height="40" as="geometry" />
        </mxCell>
        <mxCell id="2xi72jJKv009g28mrc_R-154" value="" style="shape=partialRectangle;html=1;whiteSpace=wrap;connectable=0;strokeColor=inherit;overflow=hidden;fillColor=none;top=0;left=0;bottom=0;right=0;pointerEvents=1;fontSize=16;strokeWidth=2;" vertex="1" parent="2xi72jJKv009g28mrc_R-153">
          <mxGeometry width="223" height="40" as="geometry">
            <mxRectangle width="223" height="40" as="alternateBounds" />
          </mxGeometry>
        </mxCell>
        <mxCell id="2xi72jJKv009g28mrc_R-155" value="URL" style="shape=partialRectangle;html=1;whiteSpace=wrap;connectable=0;strokeColor=inherit;overflow=hidden;fillColor=none;top=0;left=0;bottom=0;right=0;pointerEvents=1;fontSize=16;strokeWidth=2;" vertex="1" parent="2xi72jJKv009g28mrc_R-153">
          <mxGeometry x="223" width="224" height="40" as="geometry">
            <mxRectangle width="224" height="40" as="alternateBounds" />
          </mxGeometry>
        </mxCell>
        <mxCell id="2xi72jJKv009g28mrc_R-156" value="Местонахождение файла" style="shape=partialRectangle;html=1;whiteSpace=wrap;connectable=0;strokeColor=inherit;overflow=hidden;fillColor=none;top=0;left=0;bottom=0;right=0;pointerEvents=1;fontSize=16;strokeWidth=2;" vertex="1" parent="2xi72jJKv009g28mrc_R-153">
          <mxGeometry x="447" width="223" height="40" as="geometry">
            <mxRectangle width="223" height="40" as="alternateBounds" />
          </mxGeometry>
        </mxCell>
        <mxCell id="2xi72jJKv009g28mrc_R-157" value="" style="shape=table;startSize=0;container=1;collapsible=0;childLayout=tableLayout;fontSize=16;strokeWidth=2;" vertex="1" parent="1">
          <mxGeometry x="50" y="1150" width="670" height="40" as="geometry" />
        </mxCell>
        <mxCell id="2xi72jJKv009g28mrc_R-158" value="" style="shape=tableRow;horizontal=0;startSize=0;swimlaneHead=0;swimlaneBody=0;strokeColor=inherit;top=0;left=0;bottom=0;right=0;collapsible=0;dropTarget=0;fillColor=none;points=[[0,0.5],[1,0.5]];portConstraint=eastwest;fontSize=16;strokeWidth=2;" vertex="1" parent="2xi72jJKv009g28mrc_R-157">
          <mxGeometry width="670" height="40" as="geometry" />
        </mxCell>
        <mxCell id="2xi72jJKv009g28mrc_R-159" value="" style="shape=partialRectangle;html=1;whiteSpace=wrap;connectable=0;strokeColor=inherit;overflow=hidden;fillColor=none;top=0;left=0;bottom=0;right=0;pointerEvents=1;fontSize=16;strokeWidth=2;" vertex="1" parent="2xi72jJKv009g28mrc_R-158">
          <mxGeometry width="223" height="40" as="geometry">
            <mxRectangle width="223" height="40" as="alternateBounds" />
          </mxGeometry>
        </mxCell>
        <mxCell id="2xi72jJKv009g28mrc_R-160" value="Type" style="shape=partialRectangle;html=1;whiteSpace=wrap;connectable=0;strokeColor=inherit;overflow=hidden;fillColor=none;top=0;left=0;bottom=0;right=0;pointerEvents=1;fontSize=16;strokeWidth=2;" vertex="1" parent="2xi72jJKv009g28mrc_R-158">
          <mxGeometry x="223" width="224" height="40" as="geometry">
            <mxRectangle width="224" height="40" as="alternateBounds" />
          </mxGeometry>
        </mxCell>
        <mxCell id="2xi72jJKv009g28mrc_R-161" value="тип файла" style="shape=partialRectangle;html=1;whiteSpace=wrap;connectable=0;strokeColor=inherit;overflow=hidden;fillColor=none;top=0;left=0;bottom=0;right=0;pointerEvents=1;fontSize=16;strokeWidth=2;" vertex="1" parent="2xi72jJKv009g28mrc_R-158">
          <mxGeometry x="447" width="223" height="40" as="geometry">
            <mxRectangle width="223" height="40" as="alternateBounds" />
          </mxGeometry>
        </mxCell>
        <mxCell id="2xi72jJKv009g28mrc_R-189" value="&lt;span style=&quot;font-size: 14px;&quot;&gt;Объект &lt;b&gt;MediaFile&lt;/b&gt;&lt;/span&gt;" style="text;html=1;align=center;verticalAlign=middle;whiteSpace=wrap;rounded=0;" vertex="1" parent="1">
          <mxGeometry x="55" y="1000" width="130" height="30" as="geometry" />
        </mxCell>
      </root>
    </mxGraphModel>
  </diagram>
</mxfile>
